<?xml version="1.0" standalone="no"?>
<!DOCTYPE svg PUBLIC "-//W3C//DTD SVG 20010904//EN"
 "http://www.w3.org/TR/2001/REC-SVG-20010904/DTD/svg10.dtd">
<svg version="1.0" xmlns="http://www.w3.org/2000/svg"
 width="297.000000pt" height="297.000000pt" viewBox="0 0 297.000000 297.000000"
 preserveAspectRatio="xMidYMid meet">
<metadata>
Created by potrace 1.11, written by Peter Selinger 2001-2013
</metadata>
<g transform="translate(0.000000,297.000000) scale(0.100000,-0.100000)"
fill="#000000" stroke="none">
<path d="M214 2959 c-86 -25 -181 -122 -204 -209 -7 -26 -9 -453 -8 -1282 l3
-1243 24 -45 c32 -61 76 -107 136 -138 l50 -27 1265 0 1265 0 50 27 c60 31
104 77 136 138 l24 45 0 1265 0 1265 -27 50 c-31 60 -77 104 -138 136 l-45 24
-1250 2 c-733 1 -1263 -2 -1281 -8z m1275 -1141 c64 -218 118 -399 121 -402 3
-2 43 174 88 392 46 218 87 401 92 406 14 14 477 0 536 -17 124 -35 226 -117
274 -218 79 -168 61 -460 -43 -669 -57 -117 -170 -232 -277 -283 -144 -68
-177 -72 -534 -72 l-319 0 -112 395 c-61 217 -113 401 -116 408 -2 8 -42 -163
-88 -380 -87 -408 -116 -519 -158 -602 -33 -65 -111 -146 -167 -174 -94 -48
-284 -66 -401 -38 l-50 11 -3 138 -3 139 58 -9 c85 -12 165 -8 201 11 39 20
76 76 96 147 9 30 70 306 136 614 66 308 122 570 125 583 l5 22 212 -2 211 -3
116 -397z"/>
<path d="M2066 1924 c-3 -11 -35 -161 -71 -334 -36 -173 -69 -326 -72 -339
l-6 -24 68 6 c85 8 142 35 195 93 78 85 120 211 122 369 2 167 -43 233 -167
242 -55 5 -64 3 -69 -13z"/>
</g>
</svg>
